<?xml version="1.0" encoding="UTF-8"?>
<svg width="336px" height="297px" viewBox="0 0 336 297" version="1.1" xmlns="http://www.w3.org/2000/svg" xmlns:xlink="http://www.w3.org/1999/xlink">
    <!-- Generator: Sketch 44.1 (41455) - http://www.bohemiancoding.com/sketch -->
    <title>pink-shield</title>
    <desc>Created with Sketch.</desc>
    <defs>
        <linearGradient x1="50%" y1="0%" x2="50%" y2="100%" id="linearGradient-1">
            <stop stop-color="#FF2952" offset="0%"></stop>
            <stop stop-color="#FF7993" offset="100%"></stop>
        </linearGradient>
    </defs>
    <g id="Page-1" stroke="none" stroke-width="1" fill="none" fill-rule="evenodd">
        <g id="pink-shield" fill-rule="nonzero">
            <path d="M59.0493645,0.0356393014 C55.3421081,0.00283172231 50.9759223,2.01791589 48.6000041,4.85970042 L2.72810197,59.7260932 C0.17190473,62.7835056 -0.699649514,67.7068961 0.650634003,71.4576836 L51.9404919,213.929511 C53.037975,216.978075 55.7574057,220.533462 58.4098322,222.39016 L161.855544,294.802159 C165.386033,297.273501 170.616494,297.271732 174.144456,294.802159 L277.590168,222.39016 C280.245989,220.531085 282.961292,216.98011 284.059508,213.929511 L335.349366,71.4576836 C336.704335,67.6938808 335.809274,62.7612611 333.219295,59.7142265 L287.400098,5.80928934 C285.019903,3.00905953 280.669756,1 276.994882,1 L172.005118,1 C169.8095,1 166.233322,0.984169896 164.039128,0.964752249 L59.0493645,0.0356393014 Z" id="Shield" fill="url(#linearGradient-1)"></path>
            <path d="M59.0493645,0.0356393014 C55.3421081,0.00283172231 50.9759223,2.01791589 48.6000041,4.85970042 L2.72810197,59.7260932 C0.17190473,62.7835056 -0.699649514,67.7068961 0.650634003,71.4576836 L51.9404919,213.929511 C53.037975,216.978075 55.7574057,220.533462 58.4098322,222.39016 L59.0493645,0.0356393014 Z" id="Shield" fill="#E31F45"></path>
            <path d="M335.049364,1.0356393 C331.342108,1.00283172 326.975922,3.01791589 324.600004,5.85970042 L278.728102,60.7260932 C276.171905,63.7835056 275.30035,68.7068961 276.650634,72.4576836 L327.940492,214.929511 C329.037975,217.978075 331.757406,221.533462 334.409832,223.39016 L335.049364,1.0356393 Z" id="Shield" fill="#E31F45" transform="translate(305.534285, 112.212702) scale(-1, 1) translate(-305.534285, -112.212702) "></path>
            <path d="M59.0493645,0.0356393014 C55.3421081,0.00283172231 50.9759223,2.01791589 48.6000041,4.85970042 L2.72810197,59.7260932 C0.17190473,62.7835056 -0.699649514,67.7068961 0.650634003,71.4576836 L335.349366,71.4576836 C336.704335,67.6938808 335.809274,62.7612611 333.219295,59.7142265 L287.400098,5.80928934 C285.019903,3.00905953 280.669756,1 276.994882,1 L172.005118,1 C169.8095,1 166.233322,0.984169896 164.039128,0.964752249 L59.0493645,0.0356393014 Z" id="Shield" fill-opacity="0.400000006" fill="#FFADBD"></path>
        </g>
    </g>
</svg>